# Blender v2.77 (sub 0) OBJ File: 'unitCube.blend'
# www.blender.org
mtllib unitCube.mtl
o Cube_Cube.001
v -0.900000 -0.900000 1.000000
v -1.000000 -0.900000 0.900000
v -0.900000 -1.000000 0.900000
v -0.900000 0.900000 1.000000
v -0.900000 1.000000 0.900000
v -1.000000 0.900000 0.900000
v -0.900000 -0.900000 -1.000000
v -0.900000 -1.000000 -0.900000
v -1.000000 -0.900000 -0.900000
v -0.900000 1.000000 -0.900000
v -0.900000 0.900000 -1.000000
v -1.000000 0.900000 -0.900000
v 0.900000 -0.900000 1.000000
v 0.900000 -1.000000 0.900000
v 1.000000 -0.900000 0.900000
v 0.900000 1.000000 0.900000
v 0.900000 0.900000 1.000000
v 1.000000 0.900000 0.900000
v 1.000000 -0.900000 -0.900000
v 0.900000 -1.000000 -0.900000
v 0.900000 -0.900000 -1.000000
v 0.900000 1.000000 -0.900000
v 1.000000 0.900000 -0.900000
v 0.900000 0.900000 -1.000000
vt 0.7625 0.2625
vt 0.9874 0.2625
vt 0.9874 0.4875
vt 0.7625 0.4875
vt 0.2626 0.5125
vt 0.4875 0.5125
vt 0.4875 0.7374
vt 0.2626 0.7374
vt 0.4875 0.4875
vt 0.2626 0.4875
vt 0.2626 0.2625
vt 0.4875 0.2625
vt 0.5125 0.4875
vt 0.5125 0.2625
vt 0.7375 0.2625
vt 0.7375 0.4875
vt 0.2376 0.2625
vt 0.2376 0.4875
vt 0.0126 0.4875
vt 0.0126 0.2625
vt 0.7375 0.2500
vt 0.7500 0.2625
vt 0.5000 0.2625
vt 0.5125 0.2500
vt 0.0001 0.2625
vt 0.0126 0.2500
vt 0.2501 0.2625
vt 0.2626 0.2500
vt 0.7500 0.4875
vt 0.7375 0.5000
vt 0.5000 0.4875
vt 0.4875 0.5000
vt 0.2626 0.7499
vt 0.2501 0.7374
vt 0.2626 0.5000
vt 0.2501 0.4875
vt 0.2626 0.2375
vt 0.4875 0.2375
vt 0.2376 0.2500
vt 0.7625 0.2500
vt 0.9874 0.2500
vt 0.2501 0.5125
vt 0.9999 0.2625
vt 0.9999 0.4875
vt 0.5125 0.5000
vt 0.9874 0.5000
vt 0.7625 0.5000
vt 0.2626 0.0126
vt 0.4875 0.0126
vn 0.0000 -1.0000 0.0000
vn 1.0000 0.0000 0.0000
vn 0.0000 1.0000 0.0000
vn 0.0000 0.0000 1.0000
vn 0.0000 0.0000 -1.0000
vn -0.5774 -0.5774 0.5774
vn -0.5774 0.5774 0.5774
vn -0.5774 -0.5774 -0.5774
vn -0.5774 0.5774 -0.5774
vn 0.5774 -0.5774 0.5774
vn 0.5774 0.5774 0.5774
vn 0.5774 -0.5774 -0.5774
vn 0.5774 0.5774 -0.5774
vn -0.7071 0.0000 0.7071
vn -0.7071 0.7071 0.0000
vn -0.7071 0.0000 -0.7071
vn -0.7071 -0.7071 0.0000
vn 0.0000 0.7071 -0.7071
vn 0.7071 0.0000 -0.7071
vn 0.0000 -0.7071 -0.7071
vn 0.7071 0.7071 0.0000
vn 0.7071 0.0000 0.7071
vn 0.7071 -0.7071 0.0000
vn 0.0000 0.7071 0.7071
vn 0.0000 -0.7071 0.7071
vn -1.0000 0.0000 0.0000
usemtl None
s off
f 3/1/1 8/2/1 20/3/1 14/4/1
f 23/5/2 18/6/2 15/7/2 19/8/2
f 16/9/3 22/10/3 10/11/3 5/12/3
f 17/13/4 4/14/4 1/15/4 13/16/4
f 11/17/5 24/18/5 21/19/5 7/20/5
f 1/15/6 2/21/6 3/22/6
f 4/14/7 5/23/7 6/24/7
f 7/20/8 8/25/8 9/26/8
f 10/11/9 11/27/9 12/28/9
f 13/16/10 14/29/10 15/30/10
f 16/9/11 17/31/11 18/32/11
f 19/8/12 20/33/12 21/34/12
f 22/10/13 23/35/13 24/36/13
f 1/15/14 4/14/14 6/24/14 2/21/14
f 5/12/15 10/11/15 12/37/15 6/38/15
f 11/17/16 7/20/16 9/26/16 12/39/16
f 8/2/17 3/1/17 2/40/17 9/41/17
f 10/11/18 22/10/18 24/18/18 11/17/18
f 23/5/19 19/8/19 21/34/19 24/42/19
f 20/3/20 8/2/20 7/43/20 21/44/20
f 22/10/21 16/9/21 18/6/21 23/5/21
f 17/13/22 13/16/22 15/30/22 18/45/22
f 14/4/23 20/3/23 19/46/23 15/47/23
f 16/9/24 5/12/24 4/14/24 17/13/24
f 3/1/25 14/4/25 13/16/25 1/15/25
f 6/38/26 12/37/26 9/48/26 2/49/26
